<svg xmlns="http://www.w3.org/2000/svg" width="19.9075" height="25.463" viewBox="0 0 39.815 50.926">
  <g id="palm-of-the-hand" transform="translate(-43.23)">
    <g id="Group_3" data-name="Group 3" transform="translate(43.23)">
      <g id="Layer_5_86_">
        <path id="Path_5" data-name="Path 5" d="M80.707,8.961A2.339,2.339,0,0,0,78.368,11.3V21.5a1.132,1.132,0,0,1-2.253,0V7.038a2.811,2.811,0,0,0-5.622,0s.008,14.446,0,14.45V21.5a1.063,1.063,0,0,1-2.124,0V3.044a3.047,3.047,0,0,0-6.093,0s0,18.3,0,18.509a1.016,1.016,0,0,1-2.029-.06V5.708a3.047,3.047,0,1,0-6.094,0c-.028,22.077-.028,22.077-.03,23.9,0,.69.013,2.172-.319,2.421-.276.206-.644-.05-1.089-.651-1.01-1.364-2.469-3.532-3.532-4.98-1.007-1.373-2.6-2.864-4.4-1.876a3.376,3.376,0,0,0-.847,4.923s7.524,11.041,10.095,14.88c1.505,2.247,1.909,2.959,2.428,3.7,1.977,2.813,3.081,2.9,6.27,2.9H75.936c7.109,0,7.109-8.439,7.109-12.04v-26.3C83.046,10.009,82,8.961,80.707,8.961Z" transform="translate(-43.23)" fill="#bc0000"/>
      </g>
    </g>
  </g>
</svg>
