<svg id="keylines" xmlns="http://www.w3.org/2000/svg" viewBox="0 0 24 24"><path d="M18.13,18H13V16H11v2H5.87a.87.87,0,0,0-.87.87v.26a.87.87,0,0,0,.87.87H18.13a.87.87,0,0,0,.87-.87v-.26A.87.87,0,0,0,18.13,18Z"/><path d="M22,9a2.33,2.33,0,0,0-.34-1.22L20.59,5a2,2,0,0,0-1.66-1H5.07A2,2,0,0,0,3.41,5L2.34,7.75A2.33,2.33,0,0,0,2,9V10.5H2a1.79,1.79,0,0,0,0,.23v2.54A1.74,1.74,0,0,0,3.73,15H20.27A1.74,1.74,0,0,0,22,13.27V10.73a1.79,1.79,0,0,0,0-.23h0ZM5,13a1,1,0,1,1,1-1A1,1,0,0,1,5,13Zm14,0H9a1,1,0,0,1,0-2H19a1,1,0,0,1,0,2Z"/></svg>