<?xml version="1.0" encoding="utf-8"?>
<!-- Generator: Adobe Illustrator 24.3.0, SVG Export Plug-In . SVG Version: 6.00 Build 0)  -->
<svg version="1.1" id="Lag_1" xmlns="http://www.w3.org/2000/svg" xmlns:xlink="http://www.w3.org/1999/xlink" x="0px" y="0px"
	 viewBox="0 0 24 24" style="enable-background:new 0 0 24 24;" xml:space="preserve">
<style type="text/css">
	.st0{fill:none;}
</style>
<g>
	<rect y="0" class="st0" width="24" height="24"/>
	<rect y="0" class="st0" width="24" height="24"/>
</g>
<g>
	<path d="M7.3,7.7L7.3,7.7c0.4,0.4,0.4,1,0,1.4L5.4,11h9.2c0.5,0,1,0.4,1,1l0,0c0,0.6-0.5,1-1,1H5.4l1.9,1.9c0.4,0.4,0.4,1,0,1.4
		l0,0c-0.4,0.4-1,0.4-1.4,0l-3.6-3.6c-0.4-0.4-0.4-1,0-1.4l3.6-3.6C6.3,7.3,6.9,7.3,7.3,7.7z M20,19h-7c-0.6,0-1,0.5-1,1l0,0
		c0,0.5,0.4,1,1,1h7c1.1,0,2-0.9,2-2V5c0-1.1-0.9-2-2-2h-7c-0.6,0-1,0.5-1,1l0,0c0,0.6,0.4,1,1,1h7V19z"/>
</g>
</svg>
