<svg xmlns="http://www.w3.org/2000/svg" width="24.797" height="24.797" viewBox="0 0 49.594 49.594">
  <g id="noun_Information_3267715" transform="translate(-66 -124)">
    <g id="Group_4" data-name="Group 4" transform="translate(66 124)">
      <path id="Path_8" data-name="Path 8" d="M24.8,0A24.8,24.8,0,1,1,0,24.8,24.8,24.8,0,0,1,24.8,0ZM19.543,24.616l-.568-1.751a.294.294,0,0,1,.049-.276c1.591-2.05,3.939-3.861,6.69-3.462a3,3,0,0,1,2.469,3.759c-1.218,4.5-2.507,8.977-3.725,13.474a.813.813,0,0,0,1.007,1c1.04-.294,2.058-1.56,2.719-2.377a.3.3,0,0,1,.519.1l.567,1.75a.292.292,0,0,1-.048.277c-1.592,2.05-3.94,3.86-6.691,3.46A3,3,0,0,1,20.062,36.8c1.219-4.5,2.507-8.976,3.725-13.474a.812.812,0,0,0-1.006-1c-1.04.293-2.058,1.558-2.72,2.376a.3.3,0,0,1-.518-.1ZM27.155,8.975a3.48,3.48,0,1,1-3.48,3.48A3.48,3.48,0,0,1,27.155,8.975Z" fill="#0029b1" fill-rule="evenodd"/>
    </g>
  </g>
</svg>
