<svg xmlns="http://www.w3.org/2000/svg" width="25.8365" height="22.797" viewBox="0 0 51.673 45.594">
  <g id="noun_Warning_170417" transform="translate(168.582 -59.85)">
    <path id="Path_7" data-name="Path 7" d="M-149.352,257.564l-22.584-39.1a3.248,3.248,0,0,0-5.618,0l-22.584,39.1a3.244,3.244,0,0,0,2.78,4.88h45.169A3.25,3.25,0,0,0-149.352,257.564Zm-26.1-27.124a2.942,2.942,0,0,1,3.348,1.589,2.507,2.507,0,0,1,.227,1.419c-.113,1.419-.17,2.837-.227,4.313-.113,2.213-.284,4.483-.4,6.7-.057.681-.057,1.362-.113,2.1a2.143,2.143,0,0,1-2.156,2.1,2.172,2.172,0,0,1-2.156-2.043c-.17-3.461-.4-6.923-.567-10.384-.057-.908-.113-1.873-.17-2.78A3.116,3.116,0,0,1-175.454,230.44Zm.738,25.989a2.858,2.858,0,0,1-2.837-2.894,2.906,2.906,0,0,1,2.894-2.894,2.872,2.872,0,0,1,2.837,2.951A2.973,2.973,0,0,1-174.717,256.429Z" transform="translate(32 -157)" fill="#edbf00"/>
  </g>
</svg>
