<svg width="262" height="280" viewBox="0 0 262 280" fill="none" xmlns="http://www.w3.org/2000/svg">
<path fill-rule="evenodd" clip-rule="evenodd" d="M66.2255 99.2748C40.3628 79.3086 -6.10352e-05 48.1482 -6.10352e-05 48.1482C-6.10352e-05 48.1482 10.1475 143.32 43.5285 194.048C43.5285 194.048 43.5285 144.047 66.2255 99.2748Z" fill="#569FC7"/>
<path d="M130.586 0C98 22.0007 -6.10352e-05 48.1482 -6.10352e-05 48.1482C-6.10352e-05 48.1482 40.3628 79.3086 66.2255 99.2748C84.6668 62.8974 103.122 30.1519 130.586 0Z" fill="#85C0E0"/>
<path fill-rule="evenodd" clip-rule="evenodd" d="M261.171 48.1482C261.171 48.1482 251.024 143.32 217.643 194.048C217.643 194.048 217.643 144.047 197.744 99.2748C222.514 79.3086 261.171 48.1482 261.171 48.1482Z" fill="#00496E"/>
<path d="M261.171 48.1482C261.171 48.1482 164 20.0007 130.586 0C161.463 28.249 180.747 61.0319 197.744 99.2748C222.514 79.3086 261.171 48.1482 261.171 48.1482Z" fill="#569FC7"/>
<path fill-rule="evenodd" clip-rule="evenodd" d="M130.586 135.688C130.586 135.688 171.517 113.495 197.744 99.2748C180.747 61.0319 161.463 28.249 130.586 0C130.586 50.6467 130.586 135.688 130.586 135.688Z" fill="#3B88B0"/>
<path d="M217.643 194.048C217.643 194.048 217.643 144.047 197.744 99.2748C171.517 113.495 130.586 135.688 130.586 135.688L217.643 194.048Z" fill="#569FC7"/>
<path fill-rule="evenodd" clip-rule="evenodd" d="M130.586 0C130.586 50.6467 130.586 135.688 130.586 135.688C130.586 135.688 91.3597 113.495 66.2255 99.2748C84.6668 62.8974 103.122 30.1519 130.586 0Z" fill="#569FC7"/>
<path d="M66.2255 99.2748C43.5285 144.047 43.5285 194.048 43.5285 194.048L130.586 135.688C130.586 135.688 91.3597 113.495 66.2255 99.2748Z" fill="#85C0E0"/>
<path fill-rule="evenodd" clip-rule="evenodd" d="M130.586 279.344C130.586 279.344 69.1551 232.992 43.5285 194.048C43.5285 194.048 97.5 202.5 130.586 214.5C130.586 244.388 130.586 279.344 130.586 279.344Z" fill="#3B88B0"/>
<path d="M130.586 135.688L43.5285 194.048C43.5285 194.048 97.5 202.5 130.586 214.5C130.586 188.287 130.586 135.688 130.586 135.688Z" fill="#569FC7"/>
<path fill-rule="evenodd" clip-rule="evenodd" d="M217.643 194.048C192.016 232.992 130.586 279.344 130.586 279.344C130.586 279.344 130.586 244.388 130.586 214.5C165.5 202.5 217.643 194.048 217.643 194.048Z" fill="#00496E"/>
<path d="M217.643 194.048L130.586 135.688C130.586 135.688 130.586 188.287 130.586 214.5C165.5 202.5 217.643 194.048 217.643 194.048Z" fill="#3B88B0"/>
</svg>
