<?xml version="1.0" encoding="utf-8"?>
<!-- Generator: Adobe Illustrator 25.0.0, SVG Export Plug-In . SVG Version: 6.00 Build 0)  -->
<svg version="1.1" id="Lag_1" xmlns="http://www.w3.org/2000/svg" xmlns:xlink="http://www.w3.org/1999/xlink" x="0px" y="0px"
	 viewBox="0 0 24 24" style="enable-background:new 0 0 24 24;" xml:space="preserve">
<style type="text/css">
	.st0{fill:none;}
	.st1{fill:none;stroke:#000000;stroke-width:2;stroke-linejoin:round;}
	.st2{fill:none;stroke:#000000;stroke-width:2;stroke-linejoin:round;stroke-dasharray:2.8083,1.8722;}
	.st3{fill:none;stroke:#000000;stroke-width:2;stroke-linejoin:round;stroke-miterlimit:10;}
</style>
<g>
	<path class="st0" d="M0,0h24v24H0V0z"/>
	<path d="M15.9,8.3L10,14.2l-1.9-1.9c-0.4-0.4-1-0.4-1.4,0s-0.4,1,0,1.4l2.6,2.6c0.4,0.4,1,0.4,1.4,0l6.6-6.6c0.4-0.4,0.4-1,0-1.4
		C16.9,7.9,16.3,7.9,15.9,8.3z"/>
	<g>
		<g>
			<g>
				<path class="st1" d="M12,21c-0.5,0-1,0-1.5-0.1"/>
				<path class="st2" d="M8.7,20.4C5.4,19.1,3,15.8,3,12c0-4.1,2.8-7.6,6.6-8.7"/>
				<path class="st1" d="M10.5,3.1C11,3,11.5,3,12,3"/>
			</g>
		</g>
		<path class="st3" d="M12,21c5,0,9-4,9-9c0-5-4-9-9-9"/>
	</g>
</g>
</svg>
