<?xml version="1.0" encoding="UTF-8" standalone="no"?>
<svg
   height="48"
   viewBox="0 -960 960 960"
   width="48"
   version="1.1"
   id="svg127"
   sodipodi:docname="search.svg"
   inkscape:version="1.1.2 (0a00cf5339, 2022-02-04)"
   xmlns:inkscape="http://www.inkscape.org/namespaces/inkscape"
   xmlns:sodipodi="http://sodipodi.sourceforge.net/DTD/sodipodi-0.dtd"
   xmlns="http://www.w3.org/2000/svg"
   xmlns:svg="http://www.w3.org/2000/svg">
  <defs
     id="defs131" />
  <sodipodi:namedview
     id="namedview129"
     pagecolor="#ffffff"
     bordercolor="#666666"
     borderopacity="1.0"
     inkscape:pageshadow="2"
     inkscape:pageopacity="0.0"
     inkscape:pagecheckerboard="0"
     showgrid="false"
     inkscape:zoom="4.8760905"
     inkscape:cx="23.78955"
     inkscape:cy="23.892091"
     inkscape:window-width="1846"
     inkscape:window-height="1016"
     inkscape:window-x="74"
     inkscape:window-y="387"
     inkscape:window-maximized="1"
     inkscape:current-layer="svg127" />
  <path
     d="M796-121 533-384q-30 26-69.959 40.5T378-329q-108.162 0-183.081-75Q120-479 120-585t75-181q75-75 181.5-75t181 75Q632-691 632-584.85 632-542 618-502q-14 40-42 75l264 262-44 44ZM377-389q81.25 0 138.125-57.5T572-585q0-81-56.875-138.5T377-781q-82.083 0-139.542 57.5Q180-666 180-585t57.458 138.5Q294.917-389 377-389Z"
     id="path125" />
</svg>
