<svg id="Lag_1" data-name="Lag 1" xmlns="http://www.w3.org/2000/svg" viewBox="0 0 747 237"><defs><style>.cls-1{fill:#90d5ff;opacity:0.2;}.cls-2{fill:#fff;}.cls-3{fill:#7c828a;}</style></defs><path class="cls-1" d="M19.5,256h747s-183-74-378-116.5C29.23,61.2,19.5,256,19.5,256Z" transform="translate(-19.5 -19)"/><rect class="cls-2" x="200.5" y="4" width="346" height="228"/><circle class="cls-3" cx="424.46" cy="128.95" r="13.87"/><circle class="cls-3" cx="322.54" cy="128.95" r="13.87"/><ellipse class="cls-3" cx="373.5" cy="162.5" rx="16.47" ry="12.13"/><rect class="cls-3" x="310.87" y="112.75" width="31.2" height="6.93" transform="translate(-33.87 159.81) rotate(-30)"/><rect class="cls-3" x="443.93" y="112.75" width="31.2" height="6.93" transform="translate(779.89 427.64) rotate(-150)"/><path class="cls-3" d="M562,19H224a8,8,0,0,0-8,8V247a8,8,0,0,0,8,8H562a8,8,0,0,0,8-8V27A8,8,0,0,0,562,19Zm4,228a4,4,0,0,1-4,4H224a4,4,0,0,1-4-4V27a4,4,0,0,1,4-4H562a4,4,0,0,1,4,4Z" transform="translate(-19.5 -19)"/><circle class="cls-3" cx="232.48" cy="18.03" r="5.28"/><circle class="cls-3" cx="214.89" cy="18.03" r="5.28"/><circle class="cls-3" cx="250.07" cy="18.03" r="5.28"/><rect class="cls-3" x="198" y="32" width="350" height="4"/></svg>